<svg width="208" height="120" viewBox="0 0 208 120" fill="none" xmlns="http://www.w3.org/2000/svg">
<path d="M138.94 54.24C137.913 54.24 137.02 54.0533 136.26 53.68C135.5 53.3067 134.913 52.7867 134.5 52.12C134.087 51.4533 133.88 50.68 133.88 49.8H135.64C135.64 50.3467 135.767 50.8533 136.02 51.32C136.273 51.7733 136.64 52.14 137.12 52.42C137.613 52.6867 138.22 52.82 138.94 52.82C139.887 52.82 140.62 52.5933 141.14 52.14C141.66 51.6867 141.92 51.12 141.92 50.44C141.92 49.88 141.8 49.4333 141.56 49.1C141.32 48.7533 140.993 48.4733 140.58 48.26C140.18 48.0467 139.713 47.86 139.18 47.7C138.66 47.54 138.113 47.36 137.54 47.16C136.46 46.7867 135.66 46.3267 135.14 45.78C134.62 45.22 134.36 44.4933 134.36 43.6C134.347 42.8533 134.52 42.1933 134.88 41.62C135.24 41.0333 135.747 40.58 136.4 40.26C137.067 39.9267 137.853 39.76 138.76 39.76C139.653 39.76 140.427 39.9267 141.08 40.26C141.747 40.5933 142.26 41.0533 142.62 41.64C142.993 42.2267 143.187 42.8933 143.2 43.64H141.44C141.44 43.2533 141.34 42.8733 141.14 42.5C140.94 42.1133 140.633 41.8 140.22 41.56C139.82 41.32 139.313 41.2 138.7 41.2C137.94 41.1867 137.313 41.38 136.82 41.78C136.34 42.18 136.1 42.7333 136.1 43.44C136.1 44.04 136.267 44.5 136.6 44.82C136.947 45.14 137.427 45.4067 138.04 45.62C138.653 45.82 139.36 46.0533 140.16 46.32C140.827 46.56 141.427 46.84 141.96 47.16C142.493 47.48 142.907 47.8933 143.2 48.4C143.507 48.9067 143.66 49.5533 143.66 50.34C143.66 51.0067 143.487 51.64 143.14 52.24C142.793 52.8267 142.267 53.3067 141.56 53.68C140.867 54.0533 139.993 54.24 138.94 54.24ZM150.503 54.24C149.556 54.24 148.703 54.0267 147.943 53.6C147.196 53.16 146.603 52.5533 146.163 51.78C145.736 50.9933 145.523 50.08 145.523 49.04C145.523 48 145.736 47.0933 146.163 46.32C146.603 45.5333 147.196 44.9267 147.943 44.5C148.703 44.06 149.556 43.84 150.503 43.84C151.676 43.84 152.663 44.1467 153.463 44.76C154.276 45.3733 154.789 46.1933 155.003 47.22H153.283C153.149 46.6067 152.823 46.1333 152.303 45.8C151.783 45.4533 151.176 45.28 150.483 45.28C149.923 45.28 149.396 45.42 148.903 45.7C148.409 45.98 148.009 46.4 147.703 46.96C147.396 47.52 147.243 48.2133 147.243 49.04C147.243 49.8667 147.396 50.56 147.703 51.12C148.009 51.68 148.409 52.1067 148.903 52.4C149.396 52.68 149.923 52.82 150.483 52.82C151.176 52.82 151.783 52.6533 152.303 52.32C152.823 51.9733 153.149 51.4867 153.283 50.86H155.003C154.803 51.86 154.296 52.6733 153.483 53.3C152.669 53.9267 151.676 54.24 150.503 54.24ZM157.349 54V44.08H158.869L159.009 45.98C159.315 45.3267 159.782 44.8067 160.409 44.42C161.035 44.0333 161.809 43.84 162.729 43.84V45.6H162.269C161.682 45.6 161.142 45.7067 160.649 45.92C160.155 46.12 159.762 46.4667 159.469 46.96C159.175 47.4533 159.029 48.1333 159.029 49V54H157.349ZM168.763 54.24C167.83 54.24 166.99 54.0267 166.243 53.6C165.497 53.1733 164.903 52.5733 164.463 51.8C164.037 51.0133 163.823 50.0933 163.823 49.04C163.823 47.9867 164.043 47.0733 164.483 46.3C164.923 45.5133 165.517 44.9067 166.263 44.48C167.023 44.0533 167.87 43.84 168.803 43.84C169.737 43.84 170.577 44.0533 171.323 44.48C172.07 44.9067 172.657 45.5133 173.083 46.3C173.523 47.0733 173.743 47.9867 173.743 49.04C173.743 50.0933 173.523 51.0133 173.083 51.8C172.643 52.5733 172.043 53.1733 171.283 53.6C170.537 54.0267 169.697 54.24 168.763 54.24ZM168.763 52.8C169.337 52.8 169.87 52.66 170.363 52.38C170.857 52.1 171.257 51.68 171.563 51.12C171.87 50.56 172.023 49.8667 172.023 49.04C172.023 48.2133 171.87 47.52 171.563 46.96C171.27 46.4 170.877 45.98 170.383 45.7C169.89 45.42 169.363 45.28 168.803 45.28C168.23 45.28 167.697 45.42 167.203 45.7C166.71 45.98 166.31 46.4 166.003 46.96C165.697 47.52 165.543 48.2133 165.543 49.04C165.543 49.8667 165.697 50.56 166.003 51.12C166.31 51.68 166.703 52.1 167.183 52.38C167.677 52.66 168.203 52.8 168.763 52.8ZM176.079 54V39.6H177.759V54H176.079ZM180.513 54V39.6H182.193V54H180.513ZM138.3 78C137.393 78 136.68 77.78 136.16 77.34C135.64 76.9 135.38 76.1067 135.38 74.96V69.5H133.66V68.08H135.38L135.6 65.7H137.06V68.08H139.98V69.5H137.06V74.96C137.06 75.5867 137.187 76.0133 137.44 76.24C137.693 76.4533 138.14 76.56 138.78 76.56H139.82V78H138.3ZM146.361 78.24C145.428 78.24 144.588 78.0267 143.841 77.6C143.094 77.1733 142.501 76.5733 142.061 75.8C141.634 75.0133 141.421 74.0933 141.421 73.04C141.421 71.9867 141.641 71.0733 142.081 70.3C142.521 69.5133 143.114 68.9067 143.861 68.48C144.621 68.0533 145.468 67.84 146.401 67.84C147.334 67.84 148.174 68.0533 148.921 68.48C149.668 68.9067 150.254 69.5133 150.681 70.3C151.121 71.0733 151.341 71.9867 151.341 73.04C151.341 74.0933 151.121 75.0133 150.681 75.8C150.241 76.5733 149.641 77.1733 148.881 77.6C148.134 78.0267 147.294 78.24 146.361 78.24ZM146.361 76.8C146.934 76.8 147.468 76.66 147.961 76.38C148.454 76.1 148.854 75.68 149.161 75.12C149.468 74.56 149.621 73.8667 149.621 73.04C149.621 72.2133 149.468 71.52 149.161 70.96C148.868 70.4 148.474 69.98 147.981 69.7C147.488 69.42 146.961 69.28 146.401 69.28C145.828 69.28 145.294 69.42 144.801 69.7C144.308 69.98 143.908 70.4 143.601 70.96C143.294 71.52 143.141 72.2133 143.141 73.04C143.141 73.8667 143.294 74.56 143.601 75.12C143.908 75.68 144.301 76.1 144.781 76.38C145.274 76.66 145.801 76.8 146.361 76.8ZM138.84 102.24C137.893 102.24 137.053 102.027 136.32 101.6C135.587 101.16 135.007 100.553 134.58 99.78C134.167 99.0067 133.96 98.0933 133.96 97.04C133.96 96 134.167 95.0933 134.58 94.32C134.993 93.5333 135.567 92.9267 136.3 92.5C137.047 92.06 137.907 91.84 138.88 91.84C139.84 91.84 140.667 92.06 141.36 92.5C142.067 92.9267 142.607 93.4933 142.98 94.2C143.353 94.9067 143.54 95.6667 143.54 96.48C143.54 96.6267 143.533 96.7733 143.52 96.92C143.52 97.0667 143.52 97.2333 143.52 97.42H135.62C135.66 98.18 135.833 98.8133 136.14 99.32C136.46 99.8133 136.853 100.187 137.32 100.44C137.8 100.693 138.307 100.82 138.84 100.82C139.533 100.82 140.113 100.66 140.58 100.34C141.047 100.02 141.387 99.5867 141.6 99.04H143.26C142.993 99.96 142.48 100.727 141.72 101.34C140.973 101.94 140.013 102.24 138.84 102.24ZM138.84 93.26C138.04 93.26 137.327 93.5067 136.7 94C136.087 94.48 135.733 95.1867 135.64 96.12H141.88C141.84 95.2267 141.533 94.5267 140.96 94.02C140.387 93.5133 139.68 93.26 138.84 93.26ZM144.298 102L147.738 97.04L144.298 92.08H146.118L148.898 96.18L151.698 92.08H153.498L150.058 97.04L153.498 102H151.698L148.898 97.9L146.118 102H144.298ZM155.259 106.4V92.08H156.779L156.939 93.72C157.259 93.24 157.712 92.8067 158.299 92.42C158.899 92.0333 159.659 91.84 160.579 91.84C161.566 91.84 162.426 92.0667 163.159 92.52C163.892 92.9733 164.459 93.5933 164.859 94.38C165.272 95.1667 165.479 96.06 165.479 97.06C165.479 98.06 165.272 98.9533 164.859 99.74C164.459 100.513 163.886 101.127 163.139 101.58C162.406 102.02 161.546 102.24 160.559 102.24C159.746 102.24 159.019 102.073 158.379 101.74C157.752 101.407 157.272 100.94 156.939 100.34V106.4H155.259ZM160.379 100.78C161.046 100.78 161.632 100.627 162.139 100.32C162.646 100 163.046 99.56 163.339 99C163.632 98.44 163.779 97.7867 163.779 97.04C163.779 96.2933 163.632 95.64 163.339 95.08C163.046 94.52 162.646 94.0867 162.139 93.78C161.632 93.46 161.046 93.3 160.379 93.3C159.712 93.3 159.126 93.46 158.619 93.78C158.112 94.0867 157.712 94.52 157.419 95.08C157.126 95.64 156.979 96.2933 156.979 97.04C156.979 97.7867 157.126 98.44 157.419 99C157.712 99.56 158.112 100 158.619 100.32C159.126 100.627 159.712 100.78 160.379 100.78ZM167.818 102V87.6H169.498V102H167.818ZM176.771 102.24C175.838 102.24 174.998 102.027 174.251 101.6C173.504 101.173 172.911 100.573 172.471 99.8C172.044 99.0133 171.831 98.0933 171.831 97.04C171.831 95.9867 172.051 95.0733 172.491 94.3C172.931 93.5133 173.524 92.9067 174.271 92.48C175.031 92.0533 175.878 91.84 176.811 91.84C177.744 91.84 178.584 92.0533 179.331 92.48C180.078 92.9067 180.664 93.5133 181.091 94.3C181.531 95.0733 181.751 95.9867 181.751 97.04C181.751 98.0933 181.531 99.0133 181.091 99.8C180.651 100.573 180.051 101.173 179.291 101.6C178.544 102.027 177.704 102.24 176.771 102.24ZM176.771 100.8C177.344 100.8 177.878 100.66 178.371 100.38C178.864 100.1 179.264 99.68 179.571 99.12C179.878 98.56 180.031 97.8667 180.031 97.04C180.031 96.2133 179.878 95.52 179.571 94.96C179.278 94.4 178.884 93.98 178.391 93.7C177.898 93.42 177.371 93.28 176.811 93.28C176.238 93.28 175.704 93.42 175.211 93.7C174.718 93.98 174.318 94.4 174.011 94.96C173.704 95.52 173.551 96.2133 173.551 97.04C173.551 97.8667 173.704 98.56 174.011 99.12C174.318 99.68 174.711 100.1 175.191 100.38C175.684 100.66 176.211 100.8 176.771 100.8ZM184.087 102V92.08H185.607L185.747 93.98C186.054 93.3267 186.52 92.8067 187.147 92.42C187.774 92.0333 188.547 91.84 189.467 91.84V93.6H189.007C188.42 93.6 187.88 93.7067 187.387 93.92C186.894 94.12 186.5 94.4667 186.207 94.96C185.914 95.4533 185.767 96.1333 185.767 97V102H184.087ZM195.442 102.24C194.495 102.24 193.655 102.027 192.922 101.6C192.188 101.16 191.608 100.553 191.182 99.78C190.768 99.0067 190.562 98.0933 190.562 97.04C190.562 96 190.768 95.0933 191.182 94.32C191.595 93.5333 192.168 92.9267 192.902 92.5C193.648 92.06 194.508 91.84 195.482 91.84C196.442 91.84 197.268 92.06 197.962 92.5C198.668 92.9267 199.208 93.4933 199.582 94.2C199.955 94.9067 200.142 95.6667 200.142 96.48C200.142 96.6267 200.135 96.7733 200.122 96.92C200.122 97.0667 200.122 97.2333 200.122 97.42H192.222C192.262 98.18 192.435 98.8133 192.742 99.32C193.062 99.8133 193.455 100.187 193.922 100.44C194.402 100.693 194.908 100.82 195.442 100.82C196.135 100.82 196.715 100.66 197.182 100.34C197.648 100.02 197.988 99.5867 198.202 99.04H199.862C199.595 99.96 199.082 100.727 198.322 101.34C197.575 101.94 196.615 102.24 195.442 102.24ZM195.442 93.26C194.642 93.26 193.928 93.5067 193.302 94C192.688 94.48 192.335 95.1867 192.242 96.12H198.482C198.442 95.2267 198.135 94.5267 197.562 94.02C196.988 93.5133 196.282 93.26 195.442 93.26Z" fill="white"/>
<path d="M114.554 60C114.554 92.0878 89.3036 118 58.2771 118C27.2506 118 2 92.0878 2 60C2 27.9122 27.2506 2 58.2771 2C89.3036 2 114.554 27.9122 114.554 60Z" stroke="#F35B58" stroke-width="4"/>
<path d="M56.8629 82.4142C57.6439 83.1953 58.9102 83.1953 59.6913 82.4142L72.4192 69.6863C73.2003 68.9052 73.2003 67.6389 72.4192 66.8579C71.6382 66.0768 70.3718 66.0768 69.5908 66.8579L58.2771 78.1716L46.9634 66.8579C46.1823 66.0768 44.916 66.0768 44.1349 66.8579C43.3539 67.6389 43.3539 68.9052 44.1349 69.6863L56.8629 82.4142ZM56.2771 40L56.2771 81L60.2771 81L60.2771 40L56.2771 40Z" fill="#F35B58"/>
</svg>
